# xmcd CD database file
#
# Track frame offsets:
#	150
#	13991
#	32542
#	54695
#	75251
#	94350
#	119337
#	133002
#	164647
#	183732
#	202290
#	228891
#
# Disc length: 3301 seconds
#
# Revision: 0
# Processed by: cddbd v1.5.2PL0 Copyright (c) Steve Scherf et al.
# Submitted via: ACXtractor (MTCDDB.DLL V2003.07.15)
#
DISCID=a80ce30c
DTITLE=The JC Smith Band - Love Mechanic
DYEAR=2015
DGENRE=Blues
TTITLE0=Jump For Joy
TTITLE1=Cold Sweat
TTITLE2=Come On Home To Me
TTITLE3=Love Mechanic
TTITLE4=Ring Around The Tub
TTITLE5=Yonder Wall
TTITLE6=Bad, Bad Feeling
TTITLE7=Last Night
TTITLE8=Talk To Me Baby
TTITLE9=Rocket To The Moon
TTITLE10=Five Long Years
TTITLE11=Ain't No Stranger
EXTD=ID3G:   0 YEAR: 2015
EXTT0=
EXTT1=
EXTT2=
EXTT3=
EXTT4=
EXTT5=
EXTT6=
EXTT7=
EXTT8=
EXTT9=
EXTT10=
EXTT11=
PLAYORDER=
